<?xml version="1.0" encoding="utf-8"?>
<!-- Generator: Adobe Illustrator 16.0.0, SVG Export Plug-In . SVG Version: 6.00 Build 0)  -->
<!DOCTYPE svg PUBLIC "-//W3C//DTD SVG 1.1//EN" "http://www.w3.org/Graphics/SVG/1.1/DTD/svg11.dtd">
<svg version="1.1" xmlns="http://www.w3.org/2000/svg" xmlns:xlink="http://www.w3.org/1999/xlink" x="0px" y="0px" width="100px"
	 height="100px" viewBox="-108.333 0 100 100" enable-background="new -108.333 0 100 100" xml:space="preserve">
<g id="Layer_1" display="none">
	<g display="inline">
		<path d="M-27.803,36.231h0.111v-8.13h-0.111c-3.452,0-6.249,1.819-6.249,4.065S-31.255,36.231-27.803,36.231z"/>
		<circle cx="-63.55" cy="54.064" r="4.565"/>
		<path d="M-59.121,46.829h5.204h0.14h5.204c0.442,0,0.442-0.665,0-0.665h-5.204h-0.14h-5.204
			C-59.564,46.164-59.564,46.829-59.121,46.829z"/>
		<path d="M-58.234,48.145h4.316h0.14h4.318c0.443,0,0.443-0.665,0-0.665l-4.318,0.001h-0.14l-4.316-0.001
			C-58.678,47.48-58.678,48.145-58.234,48.145z"/>
		<path d="M-57.669,49.461h3.752h0.14h3.752c0.443,0,0.443-0.664,0-0.664h-3.752h-0.14h-3.752
			C-58.112,48.797-58.112,49.461-57.669,49.461z"/>
		<path d="M-57.587,52.094h2.036c0.393-0.285,0.826-0.512,1.296-0.664h-3.332C-58.031,51.43-58.031,52.094-57.587,52.094z"/>
		<path d="M-59.334,43.008h10.902v-2.312c0-0.384-0.323-0.695-0.722-0.695h-9.459c-0.398,0-0.721,0.311-0.721,0.695V43.008z"/>
		<path d="M-108.03,56.018c0,8.924,7.23,16.156,16.156,16.156c6.33,0,11.814-3.645,14.464-8.947l26.304-1.047
			c1.439-0.104,2.69-1.082,3.31-2.369c1.354-2.955,4.794-10.379,4.794-10.379c0.169-0.445,0.238-0.927,0.238-1.346
			c0-1.845-1.253-3.328-2.879-4.064l-0.822,1.815c1.111,0.504,1.708,1.384,1.708,2.249c0,0.231-0.029,0.419-0.084,0.578
			c-0.262,0.566-3.452,7.446-4.755,10.292c-0.296,0.613-0.887,1.166-1.589,1.234l-16.133-0.664l-4.252-9.29
			c3.793-0.803,6.554-3.217,6.554-6.07c0-2.733-2.531-5.063-6.078-5.96l30.328-0.016l-2.7,5.625
			c0.589,0.482,1.064,1.083,1.353,1.775c0.02-0.033,0.039-0.068,0.057-0.105l3.509-7.312c1.044-0.044,1.664-0.824,1.639-1.811
			l2.837,5.438c-4.632,3.033-7.692,8.269-7.692,14.218c0,1.051,0.095,2.078,0.277,3.074c0.255-0.207,0.495-0.467,0.711-0.773
			c1.116,7.834,7.852,13.857,15.994,13.857c8.923,0,16.157-7.234,16.157-16.158c0-6.166-3.456-11.525-8.535-14.249
			c0.324-0.128,0.623-0.279,0.892-0.448c-2.502-1.454-5.411-2.286-8.514-2.286c-2.243,0-4.385,0.436-6.346,1.225l-4.797-9.193
			c-0.963-1.302-3.049-0.742-3.162,0.602l-0.333-0.632c-0.685-1.468-2.954-1.303-11.421-0.762
			c-17.722,1.135-20.619,4.679-20.298,6.584h-13.803v-6.031c-7.01,0-12.693,3.222-12.693,7.197c0,0.062,0.002,0.123,0.004,0.184
			h12.69l5.642-0.002l-0.26,0.693c-1.759,0.812-3.087,2.023-3.707,3.442c-2.492-1.572-5.443-2.481-8.605-2.481
			C-100.795,39.861-108.028,47.095-108.03,56.018z M-20.521,43.06l-2.159,6.306c-0.663-0.209-1.368-0.322-2.101-0.322
			c-0.572,0-1.128,0.069-1.66,0.198l-3.129-5.995c1.49-0.559,3.104-0.865,4.79-0.865C-23.293,42.382-21.862,42.62-20.521,43.06z
			 M-38.409,56.551h6.671c0.271,3.605,3.282,6.447,6.957,6.447c3.854,0,6.977-3.125,6.977-6.979c0-2.889-1.753-5.363-4.253-6.423
			l2.162-6.313c5.119,1.965,8.753,6.924,8.753,12.736c0,7.533-6.106,13.641-13.639,13.641
			C-32.136,69.66-38.132,63.838-38.409,56.551z M-32.514,44.785l3.127,5.996c-1.422,1.25-2.33,3.07-2.369,5.104h-6.663
			C-38.374,51.281-36.047,47.222-32.514,44.785z M-43.204,35.053l3.064-2.638c0.261-0.226,0.542-0.291,0.797-0.249l0.941-0.809
			c0.671-0.577,1.539,0.428,0.867,1.006l-0.941,0.811c0.004,0.258-0.103,0.526-0.363,0.751l-3.064,2.639
			C-42.91,37.431-44.211,35.921-43.204,35.053z M-76.023,59.172c0.03-0.16,0.06-0.318,0.086-0.477
			c3.19,0.246,5.681,0.439,6.271,0.496l0.113,0.244L-76.023,59.172z M-76.756,50.309c0.771,0.141,1.584,0.212,2.42,0.212
			c0.232,0,0.466-0.006,0.695-0.016l3.027,6.615c-1.255-0.111-3.081-0.256-5.12-0.41c0.013-0.23,0.019-0.459,0.019-0.691
			C-75.715,54.008-76.084,52.082-76.756,50.309z M-82.256,44.169c0-0.978,0.547-2.022,1.554-2.899
			c-0.002,0.071,0.009,0.105,0.028,0.13l0.561,0.865c0.932,1.441,1.83,2.543,1.93,3.941c0.057,0.805-0.181,1.179-0.176,1.255
			c0.005,0.083,0.076,0.127,0.195,0.127h2.84c0.145,0,0.188-0.085,0.178-0.247c-0.056-0.787-0.72-1.804-1.994-2.711
			c-0.822-0.597-1.652-0.953-2.178-1.555h3.229c0.813,0,0.939,0.466,1.076,0.466c0.062,0,0.092-0.025,0.088-0.076
			c0-0.025-0.012-0.059-0.021-0.094l-0.768-2.109c-0.022-0.06-0.049-0.085-0.101-0.085c-0.11,0-0.106,0.06-0.116,0.161
			c-0.012,0.169-0.102,0.195-0.324,0.195c-0.094,0-0.203-0.008-0.349-0.008h-3.704l-0.15-0.229
			c-0.026-0.042-0.096-0.084-0.147-0.084c1.329-1.151,3.498-2.001,6.271-2.001c4.908,0,7.918,2.664,7.918,4.957
			c0,1.12-0.715,2.328-2.021,3.271c0.052-0.114,0.077-0.269,0.063-0.446c-0.053-0.753-0.525-1.441-1.379-1.906
			c-0.424-0.239-0.852-0.391-1.176-0.679c-0.315-0.288-0.533-0.737-0.566-1.212c-0.061-0.89,0.318-1.39,1.014-1.39
			c0.48,0,0.906,0.373,0.939,0.864c0.019,0.271-0.113,0.432-0.342,0.432c-0.248,0-0.414-0.177-0.436-0.508
			c-0.007-0.102,0.002-0.212,0.025-0.339c-0.375,0.204-0.537,0.551-0.502,1.06c0.053,0.72,0.531,1.153,1.09,1.153
			c0.646,0,1.027-0.483,0.979-1.137c-0.075-1.092-1.133-1.932-2.649-1.932c-1.553,0-2.484,0.831-2.41,1.882
			c0.042,0.61,0.408,1.11,1.013,1.398c0.622,0.296,1.413,0.34,2.313,0.509c1.023,0.193,1.695,0.924,1.719,1.288
			c0.007,0.094-0.014,0.144-0.073,0.144c-0.151,0-0.19-0.186-0.396-0.44c-0.371-0.465-0.801-0.678-1.521-0.678
			c-1.018,0-1.763,0.618-2.246,0.618c-0.312,0-0.549-0.237-0.57-0.533c-0.029-0.433,0.248-0.458,0.236-0.602
			c-0.004-0.068-0.066-0.119-0.126-0.119c-0.255,0-0.479,0.407-0.433,1.084c0.07,1.01,0.869,1.763,2.148,1.763
			c0.762,0,1.295-0.263,1.805-0.49c0.461-0.204,0.766-0.34,0.969-0.34c0.161,0,0.27,0.095,0.277,0.202
			c0.019,0.29-0.271,0.188-0.254,0.391c0.008,0.113,0.063,0.172,0.172,0.178c-1.355,0.873-3.256,1.472-5.582,1.472
			C-79.244,49.126-82.254,46.463-82.256,44.169z M-78.241,56.521l-2.371-0.184l-2.924-0.215c0.152-0.104,0.283-0.268,0.367-0.496
			l1.869-4.984l0.463,0.174l0.524-1.4l0.116-0.307l0.121,0.065c1.171,2.012,1.84,4.352,1.84,6.846
			C-78.235,56.188-78.237,56.354-78.241,56.521z M-105.514,56.021c0-7.532,6.107-13.64,13.641-13.64
			c3.146,0.001,6.039,1.066,8.348,2.855c0.162,0.651,0.469,1.269,0.896,1.836l-0.484,1.294l-0.523,1.399l0.475,0.177l-1.871,4.991
			c-0.176,0.471-0.018,0.865,0.271,1.104l-1.785-0.133c-0.062-2.889-2.422-5.209-5.323-5.209c-2.942,0-5.327,2.385-5.327,5.324
			c0,2.943,2.385,5.328,5.327,5.328c2.288,0,4.237-1.443,4.993-3.471c1.824,0.137,3.967,0.295,6.115,0.453l2.305,0.174
			c-0.034,0.188-0.072,0.375-0.115,0.561l-8.182-0.338v4.875l6.391-0.254c-2.423,3.795-6.671,6.312-11.507,6.312
			C-99.403,69.66-105.51,63.553-105.514,56.021z"/>
		<path d="M-48.644,43.531h-5.134h-0.14h-5.133c-0.439,0-0.439,0.665,0,0.665h5.133h0.14h5.134
			C-48.201,44.195-48.201,43.531-48.644,43.531z"/>
		<path d="M-48.161,44.848h-5.617h-0.14h-5.616c-0.444,0-0.444,0.665,0,0.665h5.616h0.14h5.617
			C-47.718,45.512-47.718,44.848-48.161,44.848z"/>
		<path d="M-50.448,50.777c0.442,0,0.442-0.666,0-0.666h-3.329h-0.14h-3.329c-0.443,0-0.443,0.666,0,0.666h3.329h0.14H-50.448z"/>
		<circle cx="-52.872" cy="55.828" r="3.39"/>
		<path d="M-50.105,51.43h-1.383c0.47,0.152,0.903,0.379,1.296,0.664h0.086C-49.663,52.094-49.663,51.43-50.105,51.43z"/>
	</g>
</g>
<g id="Layer_2">
	
		<polyline fill="none" stroke="#E21414" stroke-width="2" stroke-linecap="round" stroke-linejoin="round" stroke-miterlimit="10" points="
		-41.566,38.832 -50.716,59.742 -67.153,59.742 -72.419,52.75 -82.621,38.832 -65.818,38.832 -72.763,51.984 	"/>
	<path fill="#E21414" d="M-82.621,39.542h-10.984c0,0,0.11-5.004,11.372-5.004v3.794h12.102c0,0-0.912-6.111,21.836-6.111
		c9.567,0,9.921,6.937,9.921,6.937L-82.621,39.542z"/>
	<path fill="#E21414" d="M-33.844,37.704h0.066v-4.845h-0.066c-2.057,0-3.724,1.084-3.724,2.422
		C-37.568,36.62-35.901,37.704-33.844,37.704z"/>
	
		<line fill="none" stroke="#E21414" stroke-width="2" stroke-linecap="round" stroke-linejoin="round" stroke-miterlimit="10" x1="-39.1" y1="34.582" x2="-28.068" y2="56.102"/>
	
		<line fill="none" stroke="#E21414" stroke-width="4" stroke-linecap="round" stroke-linejoin="round" stroke-miterlimit="10" x1="-38.741" y1="35.281" x2="-33.201" y2="45.79"/>
	<path fill="#E21414" d="M-53.368,43.085l6.896,2.705l0.678-1.727c0.112-0.287-0.001-0.599-0.253-0.698l-5.984-2.347
		c-0.252-0.099-0.547,0.054-0.66,0.34L-53.368,43.085z"/>
	<path fill="#E21414" d="M-46.861,46.103l-3.252-1.276l-0.089-0.035l-3.252-1.276c-0.278-0.109-0.495,0.445-0.217,0.555l3.251,1.275
		l0.089,0.035l3.252,1.275C-46.798,46.767-46.581,46.212-46.861,46.103z"/>
	<path fill="#E21414" d="M-47.24,47.103l-3.252-1.275l-0.089-0.035l-3.252-1.275c-0.278-0.109-0.495,0.445-0.217,0.554l3.251,1.275
		l0.089,0.035l3.252,1.276C-47.177,47.767-46.959,47.213-47.24,47.103z"/>
	<path fill="#E21414" d="M-47.619,48.104l-3.252-1.276l-0.088-0.035l-3.252-1.276c-0.278-0.109-0.495,0.445-0.217,0.555l3.251,1.275
		l0.089,0.035l3.252,1.275C-47.556,48.768-47.338,48.214-47.619,48.104z"/>
	<path fill="#E21414" d="M-48.516,48.901l-2.741-1.075l-0.075-0.029l-2.742-1.075c-0.234-0.092-0.451,0.462-0.217,0.554l2.741,1.075
		l0.075,0.029l2.742,1.075C-48.496,49.549-48.279,48.995-48.516,48.901z"/>
	<path fill="#E21414" d="M-48.946,49.882l-2.69-1.056l-0.073-0.029l-2.689-1.055c-0.23-0.09-0.448,0.464-0.217,0.555l2.689,1.054
		l0.074,0.029l2.689,1.056C-48.932,50.527-48.714,49.973-48.946,49.882z"/>
	<path fill="#E21414" d="M-49.337,50.879l-2.679-1.052l-0.073-0.029l-2.679-1.05c-0.229-0.09-0.446,0.464-0.217,0.554l2.679,1.05
		l0.073,0.029l2.679,1.052C-49.323,51.524-49.105,50.97-49.337,50.879z"/>
	<path fill="#E21414" d="M-49.978,51.951l-2.562-1.005l-0.07-0.027l-2.562-1.005c-0.219-0.086-0.436,0.468-0.217,0.554l2.562,1.004
		l0.07,0.028l2.562,1.006C-49.974,52.593-49.756,52.038-49.978,51.951z"/>
	
		<line fill="none" stroke="#E21414" stroke-width="3" stroke-linecap="round" stroke-linejoin="round" stroke-miterlimit="10" x1="-89.155" y1="55.709" x2="-72.583" y2="53.751"/>
	
		<polygon fill="none" stroke="#E21414" stroke-width="2" stroke-linecap="round" stroke-linejoin="round" stroke-miterlimit="10" points="
		-85.669,49.018 -86.868,48.563 -83.381,39.158 -82.072,39.652 	"/>
	<path fill="none" stroke="#E21414" stroke-width="2" stroke-linecap="round" stroke-linejoin="round" stroke-miterlimit="10" d="
		M-86.38,48.745"/>
	<path fill="none" stroke="#E21414" stroke-width="2" stroke-linecap="round" stroke-linejoin="round" stroke-miterlimit="10" d="
		M-86.868,49.673"/>
	
		<line fill="none" stroke="#E21414" stroke-width="2" stroke-linecap="round" stroke-linejoin="round" stroke-miterlimit="10" x1="-86.13" y1="48.506" x2="-88.823" y2="55.438"/>
	<circle fill="#E21414" cx="-63.062" cy="54.148" r="4.418"/>
	<circle fill="#E21414" cx="-54.558" cy="54.881" r="3.524"/>
	<polyline fill="#E21414" points="-62.57,49.755 -53.8,51.443 -54.046,54.476 -54.366,58.404 -63.335,58.557 	"/>
	<circle fill="#E21414" cx="-88.823" cy="55.709" r="4.685"/>
	<g>
		<path fill="#E21414" d="M-89.155,45.553c5.6,0,10.156,4.556,10.156,10.156c0,5.601-4.556,10.156-10.156,10.156
			s-10.156-4.556-10.156-10.156C-99.311,50.109-94.755,45.553-89.155,45.553 M-89.155,41.553c-7.818,0-14.156,6.337-14.156,14.156
			s6.337,14.156,14.156,14.156c7.819,0,14.156-6.338,14.156-14.156S-81.336,41.553-89.155,41.553L-89.155,41.553z"/>
	</g>
	<circle fill="#E21414" cx="-28.221" cy="55.709" r="4.685"/>
	<g>
		<path fill="#E21414" d="M-28.553,45.553c5.6,0,10.156,4.556,10.156,10.156c0,5.601-4.556,10.156-10.156,10.156
			s-10.156-4.556-10.156-10.156C-38.709,50.109-34.153,45.553-28.553,45.553 M-28.553,41.553c-7.819,0-14.156,6.337-14.156,14.156
			s6.337,14.156,14.156,14.156c7.818,0,14.156-6.338,14.156-14.156S-20.734,41.553-28.553,41.553L-28.553,41.553z"/>
	</g>
	<g>
		
			<rect x="-56.701" y="43.717" transform="matrix(0.9372 0.3489 -0.3489 0.9372 11.8415 22.2724)" fill="none" stroke="#E21414" stroke-width="2" stroke-linecap="round" stroke-linejoin="round" stroke-miterlimit="10" width="1.575" height="0.59"/>
		
			<rect x="-55.925" y="41.795" transform="matrix(-0.3712 0.9285 -0.9285 -0.3712 -36.5441 108.8833)" fill="none" stroke="#E21414" stroke-linecap="round" stroke-linejoin="round" stroke-miterlimit="10" width="1.574" height="0.546"/>
		<path fill="#E21414" d="M-57.423,44.503l2.304,0.92c0,0-0.232,1.672-1.76,1.061C-58.407,45.874-57.423,44.503-57.423,44.503z"/>
	</g>
	
		<rect x="-42.281" y="35.731" transform="matrix(0.8846 -0.4663 0.4663 0.8846 -21.4427 -14.1011)" fill="#FFFFFF" width="6.134" height="1.092"/>
	<polygon fill="#F40C0C" stroke="#E21414" stroke-width="0.5" stroke-linejoin="round" stroke-miterlimit="10" points="
		-57.735,42.384 -58.276,43.785 -60.25,42.656 -59.938,41.862 	"/>
</g>
</svg>
